<svg width="42" height="34" viewBox="0 0 42 34" fill="none" xmlns="http://www.w3.org/2000/svg">
<path d="M11.6229 14.9167C13.3488 14.9167 14.7479 13.5176 14.7479 11.7917C14.7479 10.0658 13.3488 8.66671 11.6229 8.66671C9.89699 8.66671 8.49788 10.0658 8.49788 11.7917C8.49788 13.5176 9.89699 14.9167 11.6229 14.9167Z" fill="#64748B"/>
<path d="M17.8729 21.1667L14.7479 17L8.49788 25.3334H33.4979L24.1229 12.8334L17.8729 21.1667Z" fill="#64748B"/>
<path d="M37.6646 0.333374H4.33122C2.0333 0.333374 0.164551 2.20212 0.164551 4.50004V29.5C0.164551 31.798 2.0333 33.6667 4.33122 33.6667H37.6646C39.9625 33.6667 41.8312 31.798 41.8312 29.5V4.50004C41.8312 2.20212 39.9625 0.333374 37.6646 0.333374ZM4.33122 29.5V4.50004H37.6646L37.6687 29.5H4.33122Z" fill="#64748B"/>
</svg>
